<mxfile host="app.diagrams.net" modified="2024-01-16T15:44:25.101Z" agent="Mozilla/5.0 (Macintosh; Intel Mac OS X 10_15_7) AppleWebKit/537.36 (KHTML, like Gecko) Chrome/120.0.0.0 Safari/537.36 Edg/120.0.0.0" etag="UTH01-z-30eJXYTrvUjs" version="22.1.18" type="github">
  <diagram name="第 1 页" id="MVrE7ZpOwZZvy0ujSv35">
    <mxGraphModel dx="954" dy="651" grid="1" gridSize="10" guides="1" tooltips="1" connect="1" arrows="1" fold="1" page="1" pageScale="1" pageWidth="827" pageHeight="1169" math="0" shadow="0">
      <root>
        <mxCell id="0" />
        <mxCell id="1" parent="0" />
        <mxCell id="Hyx3UyOHCQJDbXDzl8Xv-9" value="compilation" style="swimlane;whiteSpace=wrap;html=1;" vertex="1" parent="1">
          <mxGeometry x="360" y="70" width="280" height="820" as="geometry">
            <mxRectangle x="70" y="110" width="110" height="30" as="alternateBounds" />
          </mxGeometry>
        </mxCell>
        <mxCell id="Hyx3UyOHCQJDbXDzl8Xv-68" value="seal" style="swimlane;whiteSpace=wrap;html=1;" vertex="1" parent="Hyx3UyOHCQJDbXDzl8Xv-9">
          <mxGeometry x="30" y="500" width="220" height="280" as="geometry" />
        </mxCell>
        <mxCell id="Hyx3UyOHCQJDbXDzl8Xv-69" value="createChunkAssets" style="swimlane;whiteSpace=wrap;html=1;" vertex="1" parent="Hyx3UyOHCQJDbXDzl8Xv-68">
          <mxGeometry x="17.5" y="40" width="185" height="200" as="geometry" />
        </mxCell>
        <mxCell id="Hyx3UyOHCQJDbXDzl8Xv-71" value="hooks:renderManifest" style="swimlane;whiteSpace=wrap;html=1;" vertex="1" parent="Hyx3UyOHCQJDbXDzl8Xv-69">
          <mxGeometry x="15" y="40" width="155" height="120" as="geometry" />
        </mxCell>
        <mxCell id="Hyx3UyOHCQJDbXDzl8Xv-72" value="emitAsset" style="swimlane;whiteSpace=wrap;html=1;" vertex="1" parent="Hyx3UyOHCQJDbXDzl8Xv-71">
          <mxGeometry x="15" y="40" width="125" height="50" as="geometry" />
        </mxCell>
        <mxCell id="Hyx3UyOHCQJDbXDzl8Xv-123" value="handleModuleCreation" style="swimlane;whiteSpace=wrap;html=1;" vertex="1" parent="Hyx3UyOHCQJDbXDzl8Xv-9">
          <mxGeometry x="20" y="30" width="240" height="370" as="geometry" />
        </mxCell>
        <mxCell id="Hyx3UyOHCQJDbXDzl8Xv-75" value="factorizeModule" style="swimlane;whiteSpace=wrap;html=1;" vertex="1" parent="Hyx3UyOHCQJDbXDzl8Xv-123">
          <mxGeometry x="20" y="50" width="200" height="50" as="geometry" />
        </mxCell>
        <mxCell id="Hyx3UyOHCQJDbXDzl8Xv-113" value="cb" style="text;html=1;align=center;verticalAlign=middle;resizable=0;points=[];autosize=1;strokeColor=none;fillColor=none;" vertex="1" parent="Hyx3UyOHCQJDbXDzl8Xv-75">
          <mxGeometry x="80" y="20" width="40" height="30" as="geometry" />
        </mxCell>
        <mxCell id="Hyx3UyOHCQJDbXDzl8Xv-79" value="addModule" style="swimlane;whiteSpace=wrap;html=1;" vertex="1" parent="Hyx3UyOHCQJDbXDzl8Xv-123">
          <mxGeometry x="20" y="120" width="200" height="50" as="geometry" />
        </mxCell>
        <mxCell id="Hyx3UyOHCQJDbXDzl8Xv-91" style="edgeStyle=orthogonalEdgeStyle;rounded=0;orthogonalLoop=1;jettySize=auto;html=1;" edge="1" parent="Hyx3UyOHCQJDbXDzl8Xv-123" source="Hyx3UyOHCQJDbXDzl8Xv-75" target="Hyx3UyOHCQJDbXDzl8Xv-79">
          <mxGeometry relative="1" as="geometry" />
        </mxCell>
        <mxCell id="Hyx3UyOHCQJDbXDzl8Xv-80" value="buildModule" style="swimlane;whiteSpace=wrap;html=1;" vertex="1" parent="Hyx3UyOHCQJDbXDzl8Xv-123">
          <mxGeometry x="20" y="190" width="200" height="60" as="geometry" />
        </mxCell>
        <mxCell id="Hyx3UyOHCQJDbXDzl8Xv-121" value="cb" style="text;html=1;align=center;verticalAlign=middle;resizable=0;points=[];autosize=1;strokeColor=none;fillColor=none;" vertex="1" parent="Hyx3UyOHCQJDbXDzl8Xv-80">
          <mxGeometry x="72.5" y="30" width="40" height="30" as="geometry" />
        </mxCell>
        <mxCell id="Hyx3UyOHCQJDbXDzl8Xv-92" style="edgeStyle=orthogonalEdgeStyle;rounded=0;orthogonalLoop=1;jettySize=auto;html=1;" edge="1" parent="Hyx3UyOHCQJDbXDzl8Xv-123" source="Hyx3UyOHCQJDbXDzl8Xv-79" target="Hyx3UyOHCQJDbXDzl8Xv-80">
          <mxGeometry relative="1" as="geometry" />
        </mxCell>
        <mxCell id="Hyx3UyOHCQJDbXDzl8Xv-126" style="edgeStyle=orthogonalEdgeStyle;rounded=0;orthogonalLoop=1;jettySize=auto;html=1;" edge="1" parent="Hyx3UyOHCQJDbXDzl8Xv-123" source="Hyx3UyOHCQJDbXDzl8Xv-81" target="Hyx3UyOHCQJDbXDzl8Xv-123">
          <mxGeometry relative="1" as="geometry">
            <Array as="points">
              <mxPoint x="280" y="300" />
              <mxPoint x="280" y="10" />
            </Array>
          </mxGeometry>
        </mxCell>
        <mxCell id="Hyx3UyOHCQJDbXDzl8Xv-81" value="processModuleDependencies" style="swimlane;whiteSpace=wrap;html=1;" vertex="1" parent="Hyx3UyOHCQJDbXDzl8Xv-123">
          <mxGeometry x="20" y="270" width="200" height="50" as="geometry" />
        </mxCell>
        <mxCell id="Hyx3UyOHCQJDbXDzl8Xv-93" style="edgeStyle=orthogonalEdgeStyle;rounded=0;orthogonalLoop=1;jettySize=auto;html=1;" edge="1" parent="Hyx3UyOHCQJDbXDzl8Xv-123" source="Hyx3UyOHCQJDbXDzl8Xv-80" target="Hyx3UyOHCQJDbXDzl8Xv-81">
          <mxGeometry relative="1" as="geometry" />
        </mxCell>
        <mxCell id="Hyx3UyOHCQJDbXDzl8Xv-11" value="compiler" style="swimlane;whiteSpace=wrap;html=1;" vertex="1" parent="1">
          <mxGeometry x="40" y="70" width="200" height="580" as="geometry">
            <mxRectangle x="70" y="110" width="110" height="30" as="alternateBounds" />
          </mxGeometry>
        </mxCell>
        <mxCell id="Hyx3UyOHCQJDbXDzl8Xv-83" value="compile" style="swimlane;whiteSpace=wrap;html=1;" vertex="1" parent="Hyx3UyOHCQJDbXDzl8Xv-11">
          <mxGeometry x="27.5" y="50" width="145" height="270" as="geometry" />
        </mxCell>
        <mxCell id="Hyx3UyOHCQJDbXDzl8Xv-84" value="hooks:make" style="swimlane;whiteSpace=wrap;html=1;" vertex="1" parent="Hyx3UyOHCQJDbXDzl8Xv-83">
          <mxGeometry x="22.5" y="40" width="100" height="210" as="geometry" />
        </mxCell>
        <mxCell id="Hyx3UyOHCQJDbXDzl8Xv-85" value="cb" style="text;html=1;align=center;verticalAlign=middle;resizable=0;points=[];autosize=1;strokeColor=none;fillColor=none;" vertex="1" parent="Hyx3UyOHCQJDbXDzl8Xv-84">
          <mxGeometry x="30" y="160" width="40" height="30" as="geometry" />
        </mxCell>
        <mxCell id="Hyx3UyOHCQJDbXDzl8Xv-87" value="emitAssets" style="swimlane;whiteSpace=wrap;html=1;" vertex="1" parent="Hyx3UyOHCQJDbXDzl8Xv-11">
          <mxGeometry x="50" y="490" width="100" height="50" as="geometry" />
        </mxCell>
        <mxCell id="Hyx3UyOHCQJDbXDzl8Xv-27" value="JavascriptModulesPlugin" style="swimlane;whiteSpace=wrap;html=1;" vertex="1" parent="1">
          <mxGeometry x="755" y="450" width="200" height="440" as="geometry">
            <mxRectangle x="70" y="110" width="110" height="30" as="alternateBounds" />
          </mxGeometry>
        </mxCell>
        <mxCell id="Hyx3UyOHCQJDbXDzl8Xv-31" value="&lt;div style=&quot;font-family: Menlo, Monaco, &amp;quot;Courier New&amp;quot;, monospace; line-height: 18px;&quot;&gt;tap:renderManifest&lt;/div&gt;" style="text;html=1;align=center;verticalAlign=middle;resizable=0;points=[];autosize=1;strokeColor=none;fillColor=none;labelBackgroundColor=default;fontColor=default;" vertex="1" parent="Hyx3UyOHCQJDbXDzl8Xv-27">
          <mxGeometry x="25" y="245" width="150" height="30" as="geometry" />
        </mxCell>
        <mxCell id="Hyx3UyOHCQJDbXDzl8Xv-40" style="edgeStyle=orthogonalEdgeStyle;rounded=0;orthogonalLoop=1;jettySize=auto;html=1;" edge="1" parent="1" source="Hyx3UyOHCQJDbXDzl8Xv-71" target="Hyx3UyOHCQJDbXDzl8Xv-31">
          <mxGeometry relative="1" as="geometry">
            <mxPoint x="475" y="375" as="sourcePoint" />
          </mxGeometry>
        </mxCell>
        <mxCell id="Hyx3UyOHCQJDbXDzl8Xv-64" style="edgeStyle=orthogonalEdgeStyle;rounded=0;orthogonalLoop=1;jettySize=auto;html=1;entryX=0.5;entryY=0;entryDx=0;entryDy=0;" edge="1" parent="1" source="Hyx3UyOHCQJDbXDzl8Xv-85" target="Hyx3UyOHCQJDbXDzl8Xv-68">
          <mxGeometry relative="1" as="geometry">
            <mxPoint x="151.5" y="365" as="sourcePoint" />
            <mxPoint x="360" y="265" as="targetPoint" />
            <Array as="points">
              <mxPoint x="140" y="510" />
              <mxPoint x="500" y="510" />
            </Array>
          </mxGeometry>
        </mxCell>
        <mxCell id="Hyx3UyOHCQJDbXDzl8Xv-74" style="edgeStyle=orthogonalEdgeStyle;rounded=0;orthogonalLoop=1;jettySize=auto;html=1;" edge="1" parent="1" source="Hyx3UyOHCQJDbXDzl8Xv-72" target="Hyx3UyOHCQJDbXDzl8Xv-87">
          <mxGeometry relative="1" as="geometry">
            <mxPoint x="171.5" y="535" as="targetPoint" />
          </mxGeometry>
        </mxCell>
        <mxCell id="Hyx3UyOHCQJDbXDzl8Xv-90" style="edgeStyle=orthogonalEdgeStyle;rounded=0;orthogonalLoop=1;jettySize=auto;html=1;" edge="1" parent="1" source="Hyx3UyOHCQJDbXDzl8Xv-81" target="Hyx3UyOHCQJDbXDzl8Xv-85">
          <mxGeometry relative="1" as="geometry">
            <Array as="points">
              <mxPoint x="290" y="395" />
              <mxPoint x="290" y="340" />
            </Array>
          </mxGeometry>
        </mxCell>
        <mxCell id="Hyx3UyOHCQJDbXDzl8Xv-94" value="NormalModuleFactory" style="swimlane;whiteSpace=wrap;html=1;" vertex="1" parent="1">
          <mxGeometry x="750" y="70" width="210" height="280" as="geometry" />
        </mxCell>
        <mxCell id="Hyx3UyOHCQJDbXDzl8Xv-95" value="create" style="swimlane;whiteSpace=wrap;html=1;" vertex="1" parent="Hyx3UyOHCQJDbXDzl8Xv-94">
          <mxGeometry x="17.5" y="40" width="175" height="230" as="geometry" />
        </mxCell>
        <mxCell id="Hyx3UyOHCQJDbXDzl8Xv-96" value="hooks.factorize" style="swimlane;whiteSpace=wrap;html=1;" vertex="1" parent="Hyx3UyOHCQJDbXDzl8Xv-95">
          <mxGeometry x="20" y="40" width="135" height="130" as="geometry" />
        </mxCell>
        <mxCell id="Hyx3UyOHCQJDbXDzl8Xv-99" value="hooks.resolve" style="swimlane;whiteSpace=wrap;html=1;" vertex="1" parent="Hyx3UyOHCQJDbXDzl8Xv-96">
          <mxGeometry x="12.5" y="40" width="110" height="70" as="geometry" />
        </mxCell>
        <mxCell id="Hyx3UyOHCQJDbXDzl8Xv-108" value="cb" style="text;html=1;align=center;verticalAlign=middle;resizable=0;points=[];autosize=1;strokeColor=none;fillColor=none;" vertex="1" parent="Hyx3UyOHCQJDbXDzl8Xv-99">
          <mxGeometry x="30" y="40" width="40" height="30" as="geometry" />
        </mxCell>
        <mxCell id="Hyx3UyOHCQJDbXDzl8Xv-111" value="cb" style="text;html=1;align=center;verticalAlign=middle;resizable=0;points=[];autosize=1;strokeColor=none;fillColor=none;" vertex="1" parent="Hyx3UyOHCQJDbXDzl8Xv-95">
          <mxGeometry x="62.5" y="200" width="40" height="30" as="geometry" />
        </mxCell>
        <mxCell id="Hyx3UyOHCQJDbXDzl8Xv-101" value="NormalModule" style="swimlane;whiteSpace=wrap;html=1;" vertex="1" parent="1">
          <mxGeometry x="1040" y="70" width="210" height="250" as="geometry" />
        </mxCell>
        <mxCell id="Hyx3UyOHCQJDbXDzl8Xv-105" value="new" style="swimlane;whiteSpace=wrap;html=1;" vertex="1" parent="Hyx3UyOHCQJDbXDzl8Xv-101">
          <mxGeometry x="17.5" y="40" width="175" height="50" as="geometry" />
        </mxCell>
        <mxCell id="Hyx3UyOHCQJDbXDzl8Xv-118" value="build" style="swimlane;whiteSpace=wrap;html=1;" vertex="1" parent="Hyx3UyOHCQJDbXDzl8Xv-101">
          <mxGeometry x="17.5" y="190" width="175" height="50" as="geometry" />
        </mxCell>
        <mxCell id="Hyx3UyOHCQJDbXDzl8Xv-120" style="edgeStyle=orthogonalEdgeStyle;rounded=0;orthogonalLoop=1;jettySize=auto;html=1;" edge="1" parent="Hyx3UyOHCQJDbXDzl8Xv-101" source="Hyx3UyOHCQJDbXDzl8Xv-117" target="Hyx3UyOHCQJDbXDzl8Xv-118">
          <mxGeometry relative="1" as="geometry" />
        </mxCell>
        <mxCell id="Hyx3UyOHCQJDbXDzl8Xv-117" value="needBuild" style="swimlane;whiteSpace=wrap;html=1;" vertex="1" parent="Hyx3UyOHCQJDbXDzl8Xv-101">
          <mxGeometry x="17.5" y="120" width="175" height="50" as="geometry" />
        </mxCell>
        <mxCell id="Hyx3UyOHCQJDbXDzl8Xv-109" style="edgeStyle=orthogonalEdgeStyle;rounded=0;orthogonalLoop=1;jettySize=auto;html=1;entryX=-0.02;entryY=0.076;entryDx=0;entryDy=0;entryPerimeter=0;" edge="1" parent="1" source="Hyx3UyOHCQJDbXDzl8Xv-108" target="Hyx3UyOHCQJDbXDzl8Xv-105">
          <mxGeometry relative="1" as="geometry">
            <Array as="points">
              <mxPoint x="990" y="245" />
              <mxPoint x="990" y="114" />
            </Array>
          </mxGeometry>
        </mxCell>
        <mxCell id="Hyx3UyOHCQJDbXDzl8Xv-110" style="edgeStyle=orthogonalEdgeStyle;rounded=0;orthogonalLoop=1;jettySize=auto;html=1;" edge="1" parent="1" source="Hyx3UyOHCQJDbXDzl8Xv-75" target="Hyx3UyOHCQJDbXDzl8Xv-95">
          <mxGeometry relative="1" as="geometry">
            <mxPoint x="550" y="124" as="targetPoint" />
            <Array as="points">
              <mxPoint x="730" y="160" />
              <mxPoint x="730" y="225" />
            </Array>
          </mxGeometry>
        </mxCell>
        <mxCell id="Hyx3UyOHCQJDbXDzl8Xv-114" style="edgeStyle=orthogonalEdgeStyle;rounded=0;orthogonalLoop=1;jettySize=auto;html=1;" edge="1" parent="1" source="Hyx3UyOHCQJDbXDzl8Xv-111" target="Hyx3UyOHCQJDbXDzl8Xv-113">
          <mxGeometry relative="1" as="geometry">
            <Array as="points">
              <mxPoint x="710" y="325" />
              <mxPoint x="710" y="190" />
            </Array>
          </mxGeometry>
        </mxCell>
        <mxCell id="Hyx3UyOHCQJDbXDzl8Xv-119" style="edgeStyle=orthogonalEdgeStyle;rounded=0;orthogonalLoop=1;jettySize=auto;html=1;" edge="1" parent="1" source="Hyx3UyOHCQJDbXDzl8Xv-80" target="Hyx3UyOHCQJDbXDzl8Xv-117">
          <mxGeometry relative="1" as="geometry">
            <Array as="points">
              <mxPoint x="690" y="300" />
              <mxPoint x="690" y="390" />
              <mxPoint x="1020" y="390" />
              <mxPoint x="1020" y="215" />
            </Array>
          </mxGeometry>
        </mxCell>
        <mxCell id="Hyx3UyOHCQJDbXDzl8Xv-122" style="edgeStyle=orthogonalEdgeStyle;rounded=0;orthogonalLoop=1;jettySize=auto;html=1;" edge="1" parent="1" source="Hyx3UyOHCQJDbXDzl8Xv-118" target="Hyx3UyOHCQJDbXDzl8Xv-121">
          <mxGeometry relative="1" as="geometry">
            <Array as="points">
              <mxPoint x="1145" y="420" />
              <mxPoint x="670" y="420" />
              <mxPoint x="670" y="335" />
            </Array>
          </mxGeometry>
        </mxCell>
        <mxCell id="Hyx3UyOHCQJDbXDzl8Xv-124" style="edgeStyle=orthogonalEdgeStyle;rounded=0;orthogonalLoop=1;jettySize=auto;html=1;" edge="1" parent="1" source="Hyx3UyOHCQJDbXDzl8Xv-84" target="Hyx3UyOHCQJDbXDzl8Xv-123">
          <mxGeometry relative="1" as="geometry" />
        </mxCell>
        <mxCell id="Hyx3UyOHCQJDbXDzl8Xv-159" value="" style="edgeStyle=entityRelationEdgeStyle;fontSize=12;html=1;endArrow=ERzeroToMany;endFill=1;startArrow=ERzeroToMany;rounded=0;" edge="1" parent="1" source="Hyx3UyOHCQJDbXDzl8Xv-150">
          <mxGeometry width="100" height="100" relative="1" as="geometry">
            <mxPoint x="-20" y="1360" as="sourcePoint" />
            <mxPoint x="180" y="1215" as="targetPoint" />
          </mxGeometry>
        </mxCell>
        <mxCell id="Hyx3UyOHCQJDbXDzl8Xv-207" style="edgeStyle=orthogonalEdgeStyle;rounded=0;orthogonalLoop=1;jettySize=auto;html=1;" edge="1" parent="1" source="Hyx3UyOHCQJDbXDzl8Xv-208" target="Hyx3UyOHCQJDbXDzl8Xv-217">
          <mxGeometry relative="1" as="geometry">
            <Array as="points">
              <mxPoint x="395" y="1120" />
              <mxPoint x="115" y="1120" />
            </Array>
          </mxGeometry>
        </mxCell>
        <mxCell id="Hyx3UyOHCQJDbXDzl8Xv-214" style="edgeStyle=orthogonalEdgeStyle;rounded=0;orthogonalLoop=1;jettySize=auto;html=1;" edge="1" parent="1" source="Hyx3UyOHCQJDbXDzl8Xv-208" target="Hyx3UyOHCQJDbXDzl8Xv-216">
          <mxGeometry relative="1" as="geometry">
            <mxPoint x="166" y="1132" as="targetPoint" />
          </mxGeometry>
        </mxCell>
        <mxCell id="Hyx3UyOHCQJDbXDzl8Xv-247" style="edgeStyle=orthogonalEdgeStyle;rounded=0;orthogonalLoop=1;jettySize=auto;html=1;" edge="1" parent="1" source="Hyx3UyOHCQJDbXDzl8Xv-216" target="Hyx3UyOHCQJDbXDzl8Xv-237">
          <mxGeometry relative="1" as="geometry">
            <Array as="points">
              <mxPoint x="395" y="1330" />
            </Array>
          </mxGeometry>
        </mxCell>
        <mxCell id="Hyx3UyOHCQJDbXDzl8Xv-216" value="Chunk" style="rounded=1;whiteSpace=wrap;html=1;" vertex="1" parent="1">
          <mxGeometry x="360" y="1200" width="70" height="40" as="geometry" />
        </mxCell>
        <mxCell id="Hyx3UyOHCQJDbXDzl8Xv-219" value="Extends" style="endArrow=block;endSize=16;endFill=0;html=1;rounded=0;" edge="1" parent="1" source="Hyx3UyOHCQJDbXDzl8Xv-217" target="Hyx3UyOHCQJDbXDzl8Xv-218">
          <mxGeometry x="0.0101" width="160" relative="1" as="geometry">
            <mxPoint x="265.44" y="1309" as="sourcePoint" />
            <mxPoint x="265.44" y="1375" as="targetPoint" />
            <mxPoint as="offset" />
          </mxGeometry>
        </mxCell>
        <mxCell id="Hyx3UyOHCQJDbXDzl8Xv-220" value="" style="edgeStyle=entityRelationEdgeStyle;fontSize=12;html=1;endArrow=ERzeroToMany;endFill=1;startArrow=ERzeroToMany;rounded=0;" edge="1" parent="1" source="Hyx3UyOHCQJDbXDzl8Xv-216" target="Hyx3UyOHCQJDbXDzl8Xv-218">
          <mxGeometry width="100" height="100" relative="1" as="geometry">
            <mxPoint x="411" y="1330" as="sourcePoint" />
            <mxPoint x="351" y="1450" as="targetPoint" />
          </mxGeometry>
        </mxCell>
        <mxCell id="Hyx3UyOHCQJDbXDzl8Xv-222" style="edgeStyle=orthogonalEdgeStyle;rounded=0;orthogonalLoop=1;jettySize=auto;html=1;" edge="1" parent="1" source="Hyx3UyOHCQJDbXDzl8Xv-208" target="Hyx3UyOHCQJDbXDzl8Xv-276">
          <mxGeometry relative="1" as="geometry">
            <mxPoint x="421.0000000000002" y="1170" as="targetPoint" />
            <Array as="points">
              <mxPoint x="395" y="1120" />
              <mxPoint x="760" y="1120" />
            </Array>
          </mxGeometry>
        </mxCell>
        <mxCell id="Hyx3UyOHCQJDbXDzl8Xv-238" value="" style="edgeStyle=orthogonalEdgeStyle;rounded=0;orthogonalLoop=1;jettySize=auto;html=1;" edge="1" parent="1" source="Hyx3UyOHCQJDbXDzl8Xv-234" target="Hyx3UyOHCQJDbXDzl8Xv-237">
          <mxGeometry relative="1" as="geometry">
            <mxPoint x="241" y="1520" as="targetPoint" />
            <Array as="points">
              <mxPoint x="725" y="1330" />
            </Array>
          </mxGeometry>
        </mxCell>
        <mxCell id="Hyx3UyOHCQJDbXDzl8Xv-278" style="edgeStyle=orthogonalEdgeStyle;rounded=0;orthogonalLoop=1;jettySize=auto;html=1;" edge="1" parent="1" source="Hyx3UyOHCQJDbXDzl8Xv-234" target="Hyx3UyOHCQJDbXDzl8Xv-258">
          <mxGeometry relative="1" as="geometry" />
        </mxCell>
        <mxCell id="Hyx3UyOHCQJDbXDzl8Xv-279" value="add" style="edgeLabel;html=1;align=center;verticalAlign=middle;resizable=0;points=[];" vertex="1" connectable="0" parent="Hyx3UyOHCQJDbXDzl8Xv-278">
          <mxGeometry x="-0.0762" y="2" relative="1" as="geometry">
            <mxPoint as="offset" />
          </mxGeometry>
        </mxCell>
        <mxCell id="Hyx3UyOHCQJDbXDzl8Xv-284" style="edgeStyle=orthogonalEdgeStyle;rounded=0;orthogonalLoop=1;jettySize=auto;html=1;" edge="1" parent="1" source="Hyx3UyOHCQJDbXDzl8Xv-234" target="Hyx3UyOHCQJDbXDzl8Xv-283">
          <mxGeometry relative="1" as="geometry">
            <Array as="points">
              <mxPoint x="725" y="1370" />
              <mxPoint x="590" y="1370" />
            </Array>
          </mxGeometry>
        </mxCell>
        <mxCell id="Hyx3UyOHCQJDbXDzl8Xv-287" value="push" style="edgeLabel;html=1;align=center;verticalAlign=middle;resizable=0;points=[];" vertex="1" connectable="0" parent="Hyx3UyOHCQJDbXDzl8Xv-284">
          <mxGeometry x="0.6325" relative="1" as="geometry">
            <mxPoint as="offset" />
          </mxGeometry>
        </mxCell>
        <mxCell id="Hyx3UyOHCQJDbXDzl8Xv-234" value="Module" style="rounded=1;whiteSpace=wrap;html=1;" vertex="1" parent="1">
          <mxGeometry x="690" y="1310" width="70" height="40" as="geometry" />
        </mxCell>
        <mxCell id="Hyx3UyOHCQJDbXDzl8Xv-237" value="ChunkGraph" style="rounded=1;whiteSpace=wrap;html=1;" vertex="1" parent="1">
          <mxGeometry x="350" y="1310" width="90" height="40" as="geometry" />
        </mxCell>
        <mxCell id="Hyx3UyOHCQJDbXDzl8Xv-243" value="" style="edgeStyle=orthogonalEdgeStyle;rounded=0;orthogonalLoop=1;jettySize=auto;html=1;" edge="1" parent="1" source="Hyx3UyOHCQJDbXDzl8Xv-218" target="Hyx3UyOHCQJDbXDzl8Xv-217">
          <mxGeometry relative="1" as="geometry">
            <mxPoint x="330" y="1320" as="sourcePoint" />
            <mxPoint x="115" y="1500" as="targetPoint" />
            <Array as="points" />
          </mxGeometry>
        </mxCell>
        <mxCell id="Hyx3UyOHCQJDbXDzl8Xv-246" style="edgeStyle=orthogonalEdgeStyle;rounded=0;orthogonalLoop=1;jettySize=auto;html=1;" edge="1" parent="1" source="Hyx3UyOHCQJDbXDzl8Xv-217" target="Hyx3UyOHCQJDbXDzl8Xv-237">
          <mxGeometry relative="1" as="geometry">
            <Array as="points">
              <mxPoint x="115" y="1330" />
            </Array>
          </mxGeometry>
        </mxCell>
        <mxCell id="Hyx3UyOHCQJDbXDzl8Xv-272" style="edgeStyle=orthogonalEdgeStyle;rounded=0;orthogonalLoop=1;jettySize=auto;html=1;" edge="1" parent="1" source="Hyx3UyOHCQJDbXDzl8Xv-217" target="Hyx3UyOHCQJDbXDzl8Xv-273">
          <mxGeometry relative="1" as="geometry">
            <mxPoint x="120" y="1640" as="targetPoint" />
            <Array as="points">
              <mxPoint x="115" y="1570" />
            </Array>
          </mxGeometry>
        </mxCell>
        <mxCell id="Hyx3UyOHCQJDbXDzl8Xv-217" value="Entrypoint" style="rounded=1;whiteSpace=wrap;html=1;" vertex="1" parent="1">
          <mxGeometry x="80" y="1200" width="70" height="40" as="geometry" />
        </mxCell>
        <mxCell id="Hyx3UyOHCQJDbXDzl8Xv-218" value="ChunkGroup" style="rounded=1;whiteSpace=wrap;html=1;" vertex="1" parent="1">
          <mxGeometry x="221" y="1200" width="99" height="40" as="geometry" />
        </mxCell>
        <mxCell id="Hyx3UyOHCQJDbXDzl8Xv-258" value="entryModules" style="rounded=1;whiteSpace=wrap;html=1;" vertex="1" parent="1">
          <mxGeometry x="675" y="1420" width="100" height="40" as="geometry" />
        </mxCell>
        <mxCell id="Hyx3UyOHCQJDbXDzl8Xv-273" value="chunkGraphInit:&lt;br&gt;Map&amp;lt;Entrypoint, Module[]&amp;gt;" style="rounded=1;whiteSpace=wrap;html=1;" vertex="1" parent="1">
          <mxGeometry x="400" y="1550" width="160" height="40" as="geometry" />
        </mxCell>
        <mxCell id="Hyx3UyOHCQJDbXDzl8Xv-275" value="entries" style="swimlane;whiteSpace=wrap;html=1;" vertex="1" parent="1">
          <mxGeometry x="320" y="918" width="280" height="162" as="geometry" />
        </mxCell>
        <mxCell id="Hyx3UyOHCQJDbXDzl8Xv-208" value="entry" style="swimlane;fontStyle=0;childLayout=stackLayout;horizontal=1;startSize=26;fillColor=none;horizontalStack=0;resizeParent=1;resizeParentMax=0;resizeLast=0;collapsible=1;marginBottom=0;whiteSpace=wrap;html=1;" vertex="1" parent="Hyx3UyOHCQJDbXDzl8Xv-275">
          <mxGeometry x="20" y="60" width="110" height="78" as="geometry" />
        </mxCell>
        <mxCell id="Hyx3UyOHCQJDbXDzl8Xv-209" value="+ name" style="text;strokeColor=none;fillColor=none;align=left;verticalAlign=top;spacingLeft=4;spacingRight=4;overflow=hidden;rotatable=0;points=[[0,0.5],[1,0.5]];portConstraint=eastwest;whiteSpace=wrap;html=1;" vertex="1" parent="Hyx3UyOHCQJDbXDzl8Xv-208">
          <mxGeometry y="26" width="110" height="26" as="geometry" />
        </mxCell>
        <mxCell id="Hyx3UyOHCQJDbXDzl8Xv-210" value="+&amp;nbsp;dependencies" style="text;strokeColor=none;fillColor=none;align=left;verticalAlign=top;spacingLeft=4;spacingRight=4;overflow=hidden;rotatable=0;points=[[0,0.5],[1,0.5]];portConstraint=eastwest;whiteSpace=wrap;html=1;" vertex="1" parent="Hyx3UyOHCQJDbXDzl8Xv-208">
          <mxGeometry y="52" width="110" height="26" as="geometry" />
        </mxCell>
        <mxCell id="Hyx3UyOHCQJDbXDzl8Xv-211" value="entry" style="swimlane;fontStyle=0;childLayout=stackLayout;horizontal=1;startSize=26;fillColor=none;horizontalStack=0;resizeParent=1;resizeParentMax=0;resizeLast=0;collapsible=1;marginBottom=0;whiteSpace=wrap;html=1;" vertex="1" parent="Hyx3UyOHCQJDbXDzl8Xv-275">
          <mxGeometry x="150" y="60" width="110" height="78" as="geometry" />
        </mxCell>
        <mxCell id="Hyx3UyOHCQJDbXDzl8Xv-212" value="+ name" style="text;strokeColor=none;fillColor=none;align=left;verticalAlign=top;spacingLeft=4;spacingRight=4;overflow=hidden;rotatable=0;points=[[0,0.5],[1,0.5]];portConstraint=eastwest;whiteSpace=wrap;html=1;" vertex="1" parent="Hyx3UyOHCQJDbXDzl8Xv-211">
          <mxGeometry y="26" width="110" height="26" as="geometry" />
        </mxCell>
        <mxCell id="Hyx3UyOHCQJDbXDzl8Xv-213" value="+&amp;nbsp;dependencies" style="text;strokeColor=none;fillColor=none;align=left;verticalAlign=top;spacingLeft=4;spacingRight=4;overflow=hidden;rotatable=0;points=[[0,0.5],[1,0.5]];portConstraint=eastwest;whiteSpace=wrap;html=1;" vertex="1" parent="Hyx3UyOHCQJDbXDzl8Xv-211">
          <mxGeometry y="52" width="110" height="26" as="geometry" />
        </mxCell>
        <mxCell id="Hyx3UyOHCQJDbXDzl8Xv-276" value="dependencies" style="swimlane;whiteSpace=wrap;html=1;" vertex="1" parent="1">
          <mxGeometry x="670" y="1150" width="200" height="110" as="geometry" />
        </mxCell>
        <mxCell id="Hyx3UyOHCQJDbXDzl8Xv-221" value="dep" style="rounded=1;whiteSpace=wrap;html=1;" vertex="1" parent="Hyx3UyOHCQJDbXDzl8Xv-276">
          <mxGeometry x="20" y="50" width="70" height="40" as="geometry" />
        </mxCell>
        <mxCell id="Hyx3UyOHCQJDbXDzl8Xv-227" value="dep" style="rounded=1;whiteSpace=wrap;html=1;" vertex="1" parent="Hyx3UyOHCQJDbXDzl8Xv-276">
          <mxGeometry x="110" y="50" width="70" height="40" as="geometry" />
        </mxCell>
        <mxCell id="Hyx3UyOHCQJDbXDzl8Xv-277" style="edgeStyle=orthogonalEdgeStyle;rounded=0;orthogonalLoop=1;jettySize=auto;html=1;" edge="1" parent="1" source="Hyx3UyOHCQJDbXDzl8Xv-221" target="Hyx3UyOHCQJDbXDzl8Xv-234">
          <mxGeometry relative="1" as="geometry" />
        </mxCell>
        <mxCell id="Hyx3UyOHCQJDbXDzl8Xv-288" style="edgeStyle=orthogonalEdgeStyle;rounded=0;orthogonalLoop=1;jettySize=auto;html=1;entryX=1;entryY=0.5;entryDx=0;entryDy=0;" edge="1" parent="1" source="Hyx3UyOHCQJDbXDzl8Xv-283" target="Hyx3UyOHCQJDbXDzl8Xv-273">
          <mxGeometry relative="1" as="geometry" />
        </mxCell>
        <mxCell id="Hyx3UyOHCQJDbXDzl8Xv-283" value="&lt;div style=&quot;font-family: Menlo, Monaco, &amp;quot;Courier New&amp;quot;, monospace; line-height: 18px;&quot;&gt;modulesList&lt;br&gt;&lt;/div&gt;" style="rounded=1;whiteSpace=wrap;html=1;" vertex="1" parent="1">
          <mxGeometry x="540" y="1420" width="100" height="40" as="geometry" />
        </mxCell>
      </root>
    </mxGraphModel>
  </diagram>
</mxfile>
